<svg id="Layer_1" data-name="Layer 1" xmlns="http://www.w3.org/2000/svg" viewBox="0 0 592.63 406.74"><defs><style>.cls-1{fill:#21499e;}</style></defs><path class="cls-1" d="M212.65,321.34V277.81l-17.43,3.81v1.48a4.87,4.87,0,0,1,4.18,1.69c1.16,1.27,1.74,3.48,1.74,6.65v23.88a16.73,16.73,0,0,1-3.38,8.35q-3,4-7.08,4a8.81,8.81,0,0,1-7.77-4q-2.68-4-2.69-11.31V277.81l-17.54,3.81v1.48a4.92,4.92,0,0,1,4.23,1.79c1.19,1.34,1.79,3.53,1.79,6.55v20.92q0,21.56,15.22,21.55a17,17,0,0,0,11.2-4.17,22.36,22.36,0,0,0,7-10.09L201,332.54h17.44v-1.37Q212.65,330.54,212.65,321.34Z"/><path class="cls-1" d="M156.44,328.58q-1.69-2.16-1.69-6.5V252l-17.43,3.8v1.48a4.83,4.83,0,0,1,4.06,1.74c1.24,1.31,1.85,3.37,1.85,6.18v56.84a10.06,10.06,0,0,1-1.85,6.45,6.4,6.4,0,0,1-4.06,2.64v1.37h23.13v-1.37A6.51,6.51,0,0,1,156.44,328.58Z"/><path class="cls-1" d="M114.22,292.61A23.88,23.88,0,0,0,124.73,286a15.29,15.29,0,0,0,4.07-10.62q0-9.18-7.19-14.05t-18-4.86H74.92V258q5.81.75,5.81,9.41V322a10.5,10.5,0,0,1-1.8,6.55,6.24,6.24,0,0,1-4,2.64v1.37h32.43q12.15,0,18.91-5.49a19.27,19.27,0,0,0,1.32-27.89A23.6,23.6,0,0,0,114.22,292.61ZM93.3,258.16h4.33q9.09,0,13.9,4.6t4.7,12.62q0,8.78-3.81,12.63a14,14,0,0,1-9.19,4.28l-3.59-.11a32.16,32.16,0,0,1-6.34-.53ZM116,325.52a13.63,13.63,0,0,1-11.14,5.33,53.56,53.56,0,0,1-11.52-1.06V294l9.72.1a16.35,16.35,0,0,1,12.2,5.18,18,18,0,0,1,5,13.1A20.32,20.32,0,0,1,116,325.52Z"/><path class="cls-1" d="M428.33,328.63c-1.2-1.41-1.8-3.62-1.8-6.65V252l-17.43,3.8v1.48a4.51,4.51,0,0,1,4.07,1.69q1.84,2,1.85,6.23v19.23a19.14,19.14,0,0,0-14.27-6.13q-9.93,0-16.63,8.19a30.06,30.06,0,0,0-6.71,19.7q0,11.83,6.28,19.76a20.19,20.19,0,0,0,16.64,7.92q9.82,0,16.17-10.14l-1.27,8.77h17.22v-1.48A6.51,6.51,0,0,1,428.33,328.63ZM415,322.5q-4.33,7.62-11.1,7.61-7.19,0-11-7.92t-3.85-20q0-9.51,2.8-15.69t9.14-6.18a12.31,12.31,0,0,1,8.34,3.12,21.58,21.58,0,0,1,5.71,8.18Z"/><path class="cls-1" d="M368.63,320.18V301.69q0-12-5.13-17.7t-16.43-5.65a21,21,0,0,0-13.1,4.44q-5.81,4.44-5.81,10.25a7.48,7.48,0,0,0,1.48,4.75,4.92,4.92,0,0,0,4.12,1.9,7.06,7.06,0,0,0,4.54-1.42,4.46,4.46,0,0,0,1.8-3.65,11.34,11.34,0,0,0-.74-3.75,11,11,0,0,1-.74-3.64,6.91,6.91,0,0,1,2.06-5,7.66,7.66,0,0,1,5.76-2.11,9.71,9.71,0,0,1,7.82,3.7q3.06,3.69,3.06,11.62v6.34c-.77.21-2.24.54-4.38,1s-4,.9-5.66,1.32-3.59,1-5.91,1.74a33.2,33.2,0,0,0-10.88,5.66,12.89,12.89,0,0,0-3.6,4.22,11.54,11.54,0,0,0-1.26,5.39q0,6.56,4.12,9.67a17,17,0,0,0,10.56,3.11,20.37,20.37,0,0,0,9.83-2.58,16.61,16.61,0,0,0,7.18-7.77,13,13,0,0,0,2.38,7.5q2.16,2.85,6.6,2.85a10.23,10.23,0,0,0,5.39-1.69,11.84,11.84,0,0,0,4.12-4v-1.48Q368.63,331.07,368.63,320.18Zm-11.31-3.06a10.31,10.31,0,0,1-3.64,8.34,11.62,11.62,0,0,1-7.56,3.07,8.17,8.17,0,0,1-6.18-2.49c-1.58-1.65-2.38-4-2.38-7.13a11.89,11.89,0,0,1,.53-3.64,7.34,7.34,0,0,1,1.85-3c.88-.88,1.69-1.64,2.43-2.27a15.25,15.25,0,0,1,3.38-2c1.52-.7,2.7-1.23,3.54-1.58s2.2-.88,4.07-1.59l4-1.48Z"/><path class="cls-1" d="M313.17,323.24a17.2,17.2,0,0,1-8.34,2.33,18.13,18.13,0,0,1-14.9-7.19q-5.7-7.17-5.71-19.54,0-8.34,3.91-13.52a12.67,12.67,0,0,1,10.67-5.18q5.18,0,8.09,2.59c1.93,1.72,2.94,3.54,3,5.44a8.09,8.09,0,0,1-1.16,3.8,8,8,0,0,0-1.17,3.8,5.56,5.56,0,0,0,1.75,4.28,5.7,5.7,0,0,0,4.06,1.64,5.5,5.5,0,0,0,4.39-2.27,8.83,8.83,0,0,0,1.85-5.76q0-5.91-5.76-10.62a20.83,20.83,0,0,0-13.58-4.7,24.88,24.88,0,0,0-18.85,8.14,27.22,27.22,0,0,0-7.66,19.33c0,1.18.06,2.33.17,3.45l0,.06c-4.06,7.72-8.77,11.79-12.74,13.95v0c-.54.31-1.09.58-1.63.83l-.65.28a18.93,18.93,0,0,1-3.09,1l-.65.14h0l-.47.08a16.3,16.3,0,0,1-2.09.14q-8.66,0-13.73-6.28a30.28,30.28,0,0,1-6.24-15.59l35.82-7.29a21.11,21.11,0,0,0-7.5-13.1,21.87,21.87,0,0,0-14.37-5.07,23.23,23.23,0,0,0-17.91,8,28,28,0,0,0-7.23,19.49,28.85,28.85,0,0,0,7.34,19.81,23,23,0,0,0,17.91,8.29h.17c16.12.22,25.31-16.84,27.57-21.64A28.52,28.52,0,0,0,281,325.62a22.73,22.73,0,0,0,17.8,8.29,22,22,0,0,0,12.89-4.06A22.34,22.34,0,0,0,320,318.28v-2.64A16.9,16.9,0,0,1,313.17,323.24Zm-80.89-24.61a33.27,33.27,0,0,1,.95-7.87,18.71,18.71,0,0,1,3.38-7.13,7.13,7.13,0,0,1,5.81-3.17,10.77,10.77,0,0,1,8.35,4.17,13.26,13.26,0,0,1,3.59,8.72c0,2.46-1.41,4-4.23,4.75l-17.75,3.8C232.31,301.13,232.28,300,232.28,298.63Z"/><path class="cls-1" d="M517.07,281.93l.64-4.22a46.93,46.93,0,0,1-13.84,2h-1.16V260.91h-1.59a29.52,29.52,0,0,1-6.81,11.94,20.34,20.34,0,0,1-11.47,6.87v2.21h8.35v36.24q0,7.83,3.38,11.73a10.82,10.82,0,0,0,8.56,3.91,18,18,0,0,0,6.34-1.11,16.23,16.23,0,0,0,4.33-2.22,13,13,0,0,0,2.11-2.06v-1.48a7.68,7.68,0,0,1-3.33,1.53,10.49,10.49,0,0,1-4.33.06c-1.51-.28-2.82-1.39-3.91-3.33a16.61,16.61,0,0,1-1.63-8.08V281.93Z"/><path class="cls-1" d="M473.67,283.41a21.87,21.87,0,0,0-14.37-5.07,23.23,23.23,0,0,0-17.91,8,28,28,0,0,0-7.23,19.49,28.85,28.85,0,0,0,7.34,19.81,23,23,0,0,0,17.91,8.29,22,22,0,0,0,13.26-4.17,21.45,21.45,0,0,0,8-10.93V316a16.65,16.65,0,0,1-6.71,7.29,17.17,17.17,0,0,1-8.61,2.43q-8.65,0-13.73-6.28a30.19,30.19,0,0,1-6.23-15.59l35.81-7.29A21.11,21.11,0,0,0,473.67,283.41ZM462.89,298.1l-17.75,3.8c-.07-.77-.1-1.86-.1-3.27a33.8,33.8,0,0,1,.95-7.87,18.71,18.71,0,0,1,3.38-7.13,7.14,7.14,0,0,1,5.81-3.17,10.77,10.77,0,0,1,8.35,4.17,13.26,13.26,0,0,1,3.59,8.72C467.12,295.81,465.71,297.4,462.89,298.1Z"/><path class="cls-1" d="M287.8,219.71a12.1,12.1,0,0,0,8.59,3.55h0A12,12,0,0,0,305,219.7l63.27-63.28a12.16,12.16,0,0,0,0-17.17L305,76a12.14,12.14,0,0,0-17.17,0l-63.27,63.28a12.16,12.16,0,0,0,0,17.17Zm-60.78-78,63.26-63.28a8.64,8.64,0,0,1,12.22,0l63.26,63.25a8.64,8.64,0,0,1,0,12.22L302.5,217.23a8.64,8.64,0,0,1-12.22,0L227,154a8.64,8.64,0,0,1,0-12.22Z"/><path class="cls-1" d="M277,171.55v7.8a8.48,8.48,0,0,0,8.46,8.46h2c4.23,0,9.62,0,11.27-.09a38.31,38.31,0,0,0,5.69-.61,23.68,23.68,0,0,0,10.2-4.57,24.64,24.64,0,0,0,4.15-34.85,24.64,24.64,0,0,0-4.15-34.85,23.8,23.8,0,0,0-10.2-4.57,38.31,38.31,0,0,0-5.69-.61c-1.21-.06-7.87-.08-13.24-.09h0A8.47,8.47,0,0,0,277,116v7.79a24.87,24.87,0,0,0,0,47.73Zm0-44v5.85a8.48,8.48,0,0,0,8.46,8.46h10.17a33.93,33.93,0,0,0,5.84-.42,8.57,8.57,0,0,0,3.8-1.66,9.41,9.41,0,0,0,0-14.84,8.79,8.79,0,0,0-3.79-1.67,24.2,24.2,0,0,0-3.42-.34c-1.6-.07-3-.08-5.46-.08H284a25.18,25.18,0,0,0-3.5.25v-7a5,5,0,0,1,5-5h0c7.54,0,12.19,0,13.09.08a33.78,33.78,0,0,1,5.17.56,20.22,20.22,0,0,1,8.73,3.9,21.15,21.15,0,0,1,2.7,30.91l-1.06,1.17,1.06,1.17a21.15,21.15,0,0,1-2.7,30.91,20.28,20.28,0,0,1-8.73,3.9,35.24,35.24,0,0,1-5.17.56c-1.24.05-5.19.08-11.12.08h-2a5,5,0,0,1-5-5v-7a25.18,25.18,0,0,0,3.5.25h7c2.61,0,5.52,0,7.08-.07a22.61,22.61,0,0,0,3.41-.35,8.66,8.66,0,0,0,3.79-1.66,9.41,9.41,0,0,0,0-14.84A8.66,8.66,0,0,0,301.5,154a22.62,22.62,0,0,0-3.42-.35c-1.38-.06-6.54-.07-10.62-.07h-2A8.48,8.48,0,0,0,277,162v5.84a21.34,21.34,0,0,1,0-40.35Zm3.5-.88a21.29,21.29,0,0,1,3.5-.32h8.6c2.58,0,3.86,0,5.31.07a21.21,21.21,0,0,1,2.9.29,5.28,5.28,0,0,1,2.32,1,5.92,5.92,0,0,1,0,9.31,5.05,5.05,0,0,1-2.31,1,29.74,29.74,0,0,1-5.15.36H285.48a5,5,0,0,1-5-5Zm3.5,42.43a21.28,21.28,0,0,1-3.5-.31V162a5,5,0,0,1,5-5h2c5.72,0,9.44,0,10.47.07a18.43,18.43,0,0,1,2.9.29,5.17,5.17,0,0,1,2.32,1,5.91,5.91,0,0,1,0,9.3,5.17,5.17,0,0,1-2.32,1,21.21,21.21,0,0,1-2.89.29c-1.48.06-4.36.06-6.93.06h-7Z"/></svg>